<?xml version="1.0" encoding="UTF-8" standalone="no"?>
<svg xmlns:dc="http://purl.org/dc/elements/1.1/"
xmlns:cc="http://creativecommons.org/ns#"
xmlns:rdf="http://www.w3.org/1999/02/22-rdf-syntax-ns#"
xmlns:svg="http://www.w3.org/2000/svg"
xmlns="http://www.w3.org/2000/svg"
xmlns:xlink="http://www.w3.org/1999/xlink"
version="1.1" width="285" height="75">
  <metadata>
    <rdf:RDF>
      <cc:Work rdf:about="">
        <dc:format>image/svg+xml</dc:format>
        <dc:type rdf:resource="http://purl.org/dc/dcmitype/StillImage"/>
        <dc:title/>
      </cc:Work>
    </rdf:RDF>
  </metadata>
  <defs>
    <path id="drop_shape"
          d="M 25,25 C 20.77843,19.646166 13.002814,18.371306 7.4771766,22.36138 1.9515387,26.351453 0.76832601,34.0955 4.8343958,39.658194 l 0.3076235,0.420851 C -1.4888222,31.406438 -1.8150576,19.240724 4.7952638,10.325752 l 0.1176971,-0.1564 C 9.0083499,4.727252 16.349349,3.1924903 22.245111,7.492469 27.815889,11.555425 29.094652,19.5568 24.999264,24.9989 Z"/>
    <path id="drop_seam"
          d="M 4.6509281,10.522194 5.0518818,9.9826897 C 8.6356397,5.1605552 15.78973,3.0336301 22.058507,7.313428 27.42354,10.976225 29.394263,19.240316 24.999095,25.00276 24.35604,24.171629 23.693795,23.538046 22.974862,22.941509 24.829588,19.455111 24.872048,15.023616 22.610184,11.454011 19.308744,6.2437786 12.486566,4.7413237 7.3724229,8.0981786 c -1.092672,0.717216 -2.054107,1.542418 -2.803043,2.5353084 z"/>
    <path id="center_logo_shape" d="m 22.885879,30.523071 h 4.544837 c 4.281419,0 7.752195,-3.36365 7.752195,-7.512922 0,-4.149273 -3.470776,-7.512923 -7.752195,-7.512923 h -6.559549 c -2.47005,0 -4.47242,1.940568 -4.47242,4.334379 v 16.869977 z"/>
    <linearGradient id="drop_shape_red_gradient" gradientTransform="rotate(45 0.5 0.5)">
      <stop stop-color="#ea0d30" offset="0"/>
      <stop stop-color="#fbafbb" offset="1"/>
    </linearGradient>
    <linearGradient id="drop_seam_red_gradient" gradientTransform="rotate(60 0.5 0.5)">
      <stop stop-color="#ea0d30" offset="0"/>
      <stop stop-color="#f54a65" offset="1"/>
    </linearGradient>
    <linearGradient id="drop_shape_yellow_gradient" gradientTransform="rotate(45 0.5 0.5)">
      <stop stop-color="#e58d00" offset="0"/>
      <stop stop-color="#ffd899" offset="1"/>
    </linearGradient>
    <linearGradient id="drop_seam_yellow_gradient" gradientTransform="rotate(60 0.5 0.5)">
      <stop stop-color="#e58d00" offset="0"/>
      <stop stop-color="#ffaf2e" offset="1"/>
    </linearGradient>
    <linearGradient id="drop_shape_green_gradient" gradientTransform="rotate(45 0.5 0.5)">
      <stop stop-color="#0bc346" offset="0"/>
      <stop stop-color="#89f8ac" offset="1"/>
    </linearGradient>
    <linearGradient id="drop_seam_green_gradient" gradientTransform="rotate(60 0.5 0.5)">
      <stop stop-color="#0bc346" offset="0"/>
      <stop stop-color="#23f365" offset="1"/>
    </linearGradient>
    <linearGradient id="drop_shape_blue_gradient" gradientTransform="rotate(45 0.5 0.5)">
      <stop stop-color="#00a6d4" offset="0"/>
      <stop stop-color="#88e5ff" offset="1"/>
    </linearGradient>
    <linearGradient id="drop_seam_blue_gradient" gradientTransform="rotate(60 0.5 0.5)">
      <stop stop-color="#00a6d4" offset="0"/>
      <stop stop-color="#1dceff" offset="1"/>
    </linearGradient>
    <linearGradient id="drop_shape_purple_gradient" gradientTransform="rotate(45 0.5 0.5)">
      <stop stop-color="#b92896" offset="0"/>
      <stop stop-color="#eca8dc" offset="1"/>
    </linearGradient>
    <linearGradient id="drop_seam_purple_gradient" gradientTransform="rotate(60 0.5 0.5)">
      <stop stop-color="#b92896" offset="0"/>
      <stop stop-color="#d94fb8" offset="1"/>
    </linearGradient>
    <linearGradient id="center_logo_dark_gradient" gradientTransform="rotate(65 0.5 0.5)">
      <stop stop-color="#333" offset="0"/>
      <stop stop-color="#111" offset="1"/>
    </linearGradient>
    <filter id="outset_shadow" x="-2" y="-2" width="4" height="4">
      <feFlood flood-color="#0007"/>
      <feComposite operator="in" in2="SourceAlpha" in="shadowOffset"/>
      <feGaussianBlur stdDeviation="1"/>
      <feOffset result="shadowOffset" in="shadowOffset" dx="1" dy="1.2"/>

      <feComposite operator="over" in2="shadowOffset" in="SourceGraphic"/>
    </filter>
    <filter id="inset_shadow">
      <feFlood flood-color="#0009"/>
      <feComposite operator="out" in2="SourceAlpha" in="shadowOffset"/>
      <feGaussianBlur stdDeviation="1.2"/>
      <feOffset result="shadowOffset" in="shadowOffset" dx="2" dy="2.4"/>

      <feFlood flood-color="#0009"/>
      <feComposite operator="out" in2="SourceAlpha" in="lightOffset"/>
      <feGaussianBlur stdDeviation="1.2"/>
      <feOffset result="lightOffset" in="lightOffset" dx="-1" dy="-1.4"/>
      
      <feComposite operator="atop" in2="SourceGraphic" in="shadowOffset"/>
      <feComposite operator="atop" in2="result" in="lightOffset"/>
      <feColorMatrix type="saturate" in="result" values="1.2"/>
    </filter>
  </defs>
  <g id="logo" transform="translate(13,13)">
    <g id="wheel_filter" filter="url(#inset_shadow)">
      <g id="wheel">
        <g id="drop_red" transform="rotate(0,25,25)">
          <use id="drop_shape_red" xlink:href="#drop_shape" fill="url(#drop_shape_red_gradient)"/>
          <use id="drop_seam_red" xlink:href="#drop_seam" fill="url(#drop_seam_red_gradient)"/>
        </g>
        <g id="drop_yellow" transform="rotate(72,25,25)">
          <use id="drop_shape_yellow" xlink:href="#drop_shape" fill="url(#drop_shape_yellow_gradient)"/>
          <use id="drop_seam_yellow" xlink:href="#drop_seam" fill="url(#drop_seam_yellow_gradient)"/>
        </g>
        <g id="drop_green" transform="rotate(144,25,25)">
          <use id="drop_shape_green" xlink:href="#drop_shape" fill="url(#drop_shape_green_gradient)"/>
          <use id="drop_seam_green" xlink:href="#drop_seam" fill="url(#drop_seam_green_gradient)"/>
        </g>
        <g id="drop_blue" transform="rotate(216,25,25)">
          <use id="drop_shape_blue" xlink:href="#drop_shape" fill="url(#drop_shape_blue_gradient)"/>
          <use id="drop_seam_blue" xlink:href="#drop_seam" fill="url(#drop_seam_blue_gradient)"/>
        </g>
        <g id="drop_purple" transform="rotate(288,25,25)">
          <use id="drop_shape_purple" xlink:href="#drop_shape" fill="url(#drop_shape_purple_gradient)"/>
          <use id="drop_seam_purple" xlink:href="#drop_seam" fill="url(#drop_seam_purple_gradient)"/>
        </g>
      </g>
    </g>
    <g id="center_logo">
      <use id="center_logo_use" xlink:href="#center_logo_shape" style="fill:url(#center_logo_dark_gradient);filter:url(#outset_shadow)"/>
    </g>
  </g>
  <path
     d="m 82.157745,26.883544 q 4.416,0 6.528,1.856 2.112,1.824 2.112,5.184 0,1.504 -0.448,2.88 -0.448,1.376 -1.504,2.496 -1.024,1.088 -2.72,1.728 -1.696,0.608 -4.16,0.608 h -2.08 v 8.096 h -4.896 v -22.848 z m -0.16,4 h -2.112 v 6.72 h 1.632 q 1.344,0 2.304,-0.32 0.992,-0.352 1.504,-1.12 0.544,-0.8 0.544,-2.08 0,-1.536 -0.96,-2.368 -0.928,-0.832 -2.912,-0.832 z m 15.424009,1.376 v 17.472 h -4.832 v -17.472 z m -2.4,-6.88 q 1.056,0 1.824,0.512 0.8,0.48 0.8,1.856 0,1.312 -0.8,1.824 -0.768,0.512 -1.824,0.512 -1.088,0 -1.856,-0.512 -0.768,-0.512 -0.768,-1.824 0,-1.376 0.768,-1.856 0.768,-0.512 1.856,-0.512 z m 8.927996,15.424 -5.632003,-8.544 h 5.408003 l 3.392,5.568 3.424,-5.568 h 5.408 l -5.696,8.544 5.952,8.928 h -5.408 l -3.68,-5.984 -3.68,5.984 h -5.408003 z m 19.64796,-8.864 q 2.432,0 4.192,0.928 1.76,0.896 2.688,2.688 0.96,1.76 0.96,4.32 v 2.336 h -11.232 q 0.064,1.984 1.216,3.136 1.152,1.12 3.296,1.12 1.632,0 2.976,-0.32 1.344,-0.32 2.752,-0.96 v 3.616 q -1.28,0.64 -2.72,0.928 -1.408,0.32 -3.52,0.32 -2.592,0 -4.608,-0.96 -1.984,-0.96 -3.136,-2.944 -1.152,-2.016 -1.152,-5.024 0,-3.072 1.024,-5.088 1.056,-2.048 2.912,-3.072 1.888,-1.024 4.352,-1.024 z m 0.128,3.424 q -1.44,0 -2.336,0.928 -0.896,0.896 -1.056,2.688 h 6.592 q 0,-1.056 -0.352,-1.856 -0.352,-0.8 -1.088,-1.28 -0.704,-0.48 -1.76,-0.48 z m 14.432,14.368 h -4.832 v -24.32 h 4.832 z m 12.60801,-13.888 h -4.128 v 13.888 h -4.768 v -13.888 h -2.624 v -2.304 l 2.624,-1.28 v -1.28 q 0,-2.24 0.736,-3.456 0.768,-1.248 2.144,-1.76 1.408,-0.512 3.296,-0.512 1.408,0 2.528,0.224 1.152,0.224 1.856,0.512 l -1.216,3.488 q -0.544,-0.16 -1.184,-0.288 -0.64,-0.16 -1.472,-0.16 -0.992,0 -1.472,0.608 -0.448,0.608 -0.448,1.536 v 1.088 h 4.128 z m 8.09597,-3.904 q 2.432,0 4.192,0.928 1.76,0.896 2.688,2.688 0.96,1.76 0.96,4.32 v 2.336 h -11.232 q 0.064,1.984 1.216,3.136 1.152,1.12 3.296,1.12 1.632,0 2.976,-0.32 1.344,-0.32 2.752,-0.96 v 3.616 q -1.28,0.64 -2.72,0.928 -1.408,0.32 -3.52,0.32 -2.592,0 -4.608,-0.96 -1.984,-0.96 -3.136,-2.944 -1.152,-2.016 -1.152,-5.024 0,-3.072 1.024,-5.088 1.056,-2.048 2.912,-3.072 1.888,-1.024 4.352,-1.024 z m 0.128,3.424 q -1.44,0 -2.336,0.928 -0.896,0.896 -1.056,2.688 h 6.592 q 0,-1.056 -0.352,-1.856 -0.352,-0.8 -1.088,-1.28 -0.704,-0.48 -1.76,-0.48 z m 15.328,14.688 q -2.88,0 -4.736,-2.272 -1.824,-2.304 -1.824,-6.752 0,-4.512 1.856,-6.784 1.856,-2.304 4.864,-2.304 1.248,0 2.144,0.352 0.928,0.32 1.6,0.896 0.672,0.576 1.152,1.312 h 0.16 q -0.096,-0.576 -0.192,-1.6 -0.064,-1.056 -0.064,-1.92 v -5.568 h 4.864 v 24.32 h -3.712 l -0.96,-2.272 h -0.192 q -0.448,0.736 -1.12,1.312 -0.672,0.576 -1.632,0.928 -0.928,0.352 -2.208,0.352 z m 1.696,-3.872 q 1.984,0 2.784,-1.12 0.8,-1.152 0.8,-3.488 v -0.512 q 0,-2.528 -0.768,-3.872 -0.768,-1.344 -2.848,-1.344 -1.568,0 -2.464,1.344 -0.864,1.344 -0.864,3.904 0,2.56 0.864,3.84 0.896,1.248 2.496,1.248 z m 26.49601,-9.28 h 9.056 v 11.84 q -1.792,0.608 -3.744,0.96 -1.92,0.352 -4.384,0.352 -3.392,0 -5.792,-1.344 -2.368,-1.344 -3.616,-3.968 -1.216,-2.624 -1.216,-6.464 0,-3.584 1.376,-6.208 1.408,-2.624 4.064,-4.064 2.656,-1.44 6.496,-1.44 1.824,0 3.584,0.384 1.76,0.384 3.2,1.024 l -1.6,3.872 q -1.056,-0.544 -2.4,-0.896 -1.344,-0.352 -2.816,-0.352 -2.112,0 -3.68,0.96 -1.536,0.96 -2.4,2.72 -0.832,1.728 -0.832,4.096 0,2.24 0.608,3.968 0.608,1.728 1.92,2.72 1.312,0.96 3.424,0.96 1.024,0 1.728,-0.096 0.736,-0.096 1.344,-0.224 v -4.768 h -4.32 z m 16.86403,12.832 h -4.832 v -24.32 h 4.832 z m 7.64802,-17.472 v 17.472 h -4.832 v -17.472 z m -2.4,-6.88 q 1.056,0 1.824,0.512 0.8,0.48 0.8,1.856 0,1.312 -0.8,1.824 -0.768,0.512 -1.824,0.512 -1.088,0 -1.856,-0.512 -0.768,-0.512 -0.768,-1.824 0,-1.376 0.768,-1.856 0.768,-0.512 1.856,-0.512 z m 12.70399,20.864 q 0.8,0 1.536,-0.16 0.736,-0.16 1.472,-0.384 v 3.552 q -0.768,0.32 -1.92,0.544 -1.12,0.256 -2.464,0.256 -1.568,0 -2.816,-0.512 -1.216,-0.512 -1.952,-1.76 -0.704,-1.28 -0.704,-3.52 v -8.416 h -2.272 v -2.016 l 2.624,-1.6 1.376,-3.68 h 3.04 v 3.712 h 4.896 v 3.584 h -4.896 v 8.416 q 0,0.992 0.576,1.504 0.576,0.48 1.504,0.48 z m 12.06399,3.808 q -2.528,0 -4.448,-0.928 -1.888,-0.96 -2.944,-2.944 -1.056,-2.016 -1.056,-5.088 0,-3.232 1.152,-5.248 1.152,-2.016 3.136,-2.944 1.984,-0.96 4.512,-0.96 1.536,0 2.88,0.32 1.376,0.32 2.432,0.864 l -1.44,3.648 q -0.96,-0.416 -1.952,-0.672 -0.96,-0.288 -1.92,-0.288 -1.248,0 -2.112,0.576 -0.864,0.576 -1.312,1.76 -0.448,1.152 -0.448,2.912 0,1.728 0.448,2.848 0.448,1.12 1.312,1.696 0.864,0.544 2.048,0.544 1.376,0 2.592,-0.352 1.216,-0.384 2.304,-0.992 v 3.936 q -0.992,0.608 -2.24,0.96 -1.248,0.352 -2.944,0.352 z m 11.80802,-19.744 q 0,1.408 -0.096,2.496 -0.064,1.056 -0.128,1.696 h 0.256 q 0.576,-0.928 1.344,-1.472 0.768,-0.544 1.696,-0.8 0.96,-0.288 2.016,-0.288 1.888,0 3.296,0.672 1.408,0.672 2.176,2.08 0.8,1.376 0.8,3.648 v 11.392 h -4.832 v -10.176 q 0,-1.888 -0.672,-2.816 -0.672,-0.96 -2.112,-0.96 -1.408,0 -2.24,0.672 -0.8,0.672 -1.152,1.952 -0.352,1.28 -0.352,3.136 v 8.192 h -4.832 v -24.32 h 4.832 z"
     id="brand_name"
     style="font-weight:bold;font-size:32px;font-family:'Noto Sans';-inkscape-font-specification:'Noto Sans Bold 700';letter-spacing:-0.06em;fill:url(#center_logo_dark_gradient)"
     aria-label="Pixelfed Glitch" />
</svg>
